# xmcd
# 
# Track frame offsets:
#     150
#     19469
#     35871
#     54545
#     68789
#     85727
#     104209
#     122735
#     139833
#     169453
#     189412
#     208050
#     225420
# 
# Disc length: 3276
# 
# Revision: 1
# Processed by: cddbd v1.5.2PL0 Copyright (c) Steve Scherf et al.
# Submitted via: fre:ac v1.0.27
# 
DISCID=c30cca0d
DTITLE=Jim Byrnes - My Walking Stick
DYEAR=2009
DGENRE=Blues
TTITLE0=Ol' Rattler
TTITLE1=Walk On Boy
TTITLE2=Walking Stick
TTITLE3=Lookin  For A Love
TTITLE4=Ophelia
TTITLE5=Talk In Circles
TTITLE6=Three Shots
TTITLE7=Lonely Blue Boy (Danny's Song)
TTITLE8=Drown In My Own Tears
TTITLE9=I'm Living Off The Love You Give
TTITLE10=What Are They Doing In Heaven Today?
TTITLE11=I Want My Crown
TTITLE12=One Life (Creole Poetry)
EXTD=
EXTT0=
EXTT1=
EXTT2=
EXTT3=
EXTT4=
EXTT5=
EXTT6=
EXTT7=
EXTT8=
EXTT9=
EXTT10=
EXTT11=
EXTT12=
PLAYORDER=
